<svg xmlns="http://www.w3.org/2000/svg" xmlns:xlink="http://www.w3.org/1999/xlink" width="2758" height="1584" version="1.1" viewBox="0 0 2758 1584" style="background:#f2f2f2"><title>bills</title><g id="bills" fill="none" fill-rule="evenodd" stroke="none" stroke-width="1"><g id="debt_100" transform="translate(2194.000000, 563.000000)"><rect id="Rectangle" width="500" height="500" x="63.541" y="63.541" fill="silver"/><text id="DEBT" fill="#000" font-family="PTSans-Bold, PT Sans" font-size="100" font-weight="bold"><tspan x="198.6" y="456">DEBT</tspan></text><rect id="Rectangle" width="338" height="6" x="144.541" y="362.541" fill="#000" rx="3"/><text id="100" fill="#000" font-family="PTSans-Bold, PT Sans" font-size="200" font-weight="bold"><tspan x="143.941" y="337.541">100</tspan></text><polygon id="Triangle" fill="#000" points="536 499 611 574 461 574" transform="translate(536.000000, 536.500000) rotate(135.000000) translate(-536.000000, -536.500000)"/><polygon id="Triangle" fill="#000" points="91 499 166 574 16 574" transform="translate(91.000000, 536.500000) rotate(225.000000) translate(-91.000000, -536.500000)"/><polygon id="Triangle" fill="#000" points="91 54 166 129 16 129" transform="translate(91.000000, 91.500000) rotate(315.000000) translate(-91.000000, -91.500000)"/><polygon id="Triangle" fill="#000" points="536 53 611 128 461 128" transform="translate(536.000000, 90.500000) rotate(45.000000) translate(-536.000000, -90.500000)"/><path id="Triangle" stroke="#000" stroke-width="6" d="M531,490.242641 L613.757359,573 L448.242641,573 L531,490.242641 Z" transform="translate(531.000000, 531.000000) rotate(135.000000) translate(-531.000000, -531.000000)"/><path id="Triangle" stroke="#000" stroke-width="6" d="M96,490.242641 L178.757359,573 L13.2426407,573 L96,490.242641 Z" transform="translate(96.000000, 531.000000) rotate(225.000000) translate(-96.000000, -531.000000)"/><path id="Triangle" stroke="#000" stroke-width="6" d="M96,55.2426407 L178.757359,138 L13.2426407,138 L96,55.2426407 Z" transform="translate(96.000000, 96.000000) rotate(315.000000) translate(-96.000000, -96.000000)"/><path id="Triangle" stroke="#000" stroke-width="6" d="M531,55.2426407 L613.757359,138 L448.242641,138 L531,55.2426407 Z" transform="translate(531.000000, 96.000000) rotate(45.000000) translate(-531.000000, -96.000000)"/><rect id="Rectangle" width="488" height="488" x="69.541" y="69.541" stroke="silver" stroke-width="12"/></g><g id="debt_10" transform="translate(1567.000000, 563.000000)"><rect id="Rectangle" width="500" height="500" x="63.541" y="63.541" fill="#555"/><text id="DEBT" fill="#FFF" font-family="PTSans-Bold, PT Sans" font-size="100" font-weight="bold"><tspan x="198.6" y="456">DEBT</tspan></text><rect id="Rectangle" width="338" height="6" x="144.541" y="362.541" fill="#FFF" rx="3"/><text id="10" fill="#FFF" font-family="PTSans-Bold, PT Sans" font-size="200" font-weight="bold"><tspan x="200.641" y="337.541">10</tspan></text><polygon id="Triangle" fill="#FFF" points="536 499 611 574 461 574" transform="translate(536.000000, 536.500000) rotate(135.000000) translate(-536.000000, -536.500000)"/><polygon id="Triangle" fill="#FFF" points="91 499 166 574 16 574" transform="translate(91.000000, 536.500000) rotate(225.000000) translate(-91.000000, -536.500000)"/><polygon id="Triangle" fill="#FFF" points="91 54 166 129 16 129" transform="translate(91.000000, 91.500000) rotate(315.000000) translate(-91.000000, -91.500000)"/><polygon id="Triangle" fill="#FFF" points="536 53 611 128 461 128" transform="translate(536.000000, 90.500000) rotate(45.000000) translate(-536.000000, -90.500000)"/><path id="Triangle" stroke="#FFF" stroke-width="6" d="M531,490.242641 L613.757359,573 L448.242641,573 L531,490.242641 Z" transform="translate(531.000000, 531.000000) rotate(135.000000) translate(-531.000000, -531.000000)"/><path id="Triangle" stroke="#FFF" stroke-width="6" d="M96,490.242641 L178.757359,573 L13.2426407,573 L96,490.242641 Z" transform="translate(96.000000, 531.000000) rotate(225.000000) translate(-96.000000, -531.000000)"/><path id="Triangle" stroke="#FFF" stroke-width="6" d="M96,55.2426407 L178.757359,138 L13.2426407,138 L96,55.2426407 Z" transform="translate(96.000000, 96.000000) rotate(315.000000) translate(-96.000000, -96.000000)"/><path id="Triangle" stroke="#FFF" stroke-width="6" d="M531,55.2426407 L613.757359,138 L448.242641,138 L531,55.2426407 Z" transform="translate(531.000000, 96.000000) rotate(45.000000) translate(-531.000000, -96.000000)"/><rect id="Rectangle" width="488" height="488" x="69.541" y="69.541" stroke="#555" stroke-width="12"/></g><g id="loan" transform="translate(2194.000000, -64.000000)"><rect id="Rectangle" width="500" height="500" x="63.541" y="63.541" fill="#000"/><text id="LOAN" fill="silver" font-family="PTSans-Bold, PT Sans" font-size="100" font-weight="bold"><tspan x="198.291" y="455.541">LOAN</tspan></text><rect id="Rectangle" width="338" height="6" x="144.541" y="362.541" fill="silver" rx="3"/><text id="100" fill="silver" font-family="PTSans-Bold, PT Sans" font-size="200" font-weight="bold"><tspan x="143.941" y="337.541">100</tspan></text><polygon id="Triangle" fill="silver" points="536 499 611 574 461 574" transform="translate(536.000000, 536.500000) rotate(135.000000) translate(-536.000000, -536.500000)"/><polygon id="Triangle" fill="silver" points="91 499 166 574 16 574" transform="translate(91.000000, 536.500000) rotate(225.000000) translate(-91.000000, -536.500000)"/><polygon id="Triangle" fill="silver" points="91 54 166 129 16 129" transform="translate(91.000000, 91.500000) rotate(315.000000) translate(-91.000000, -91.500000)"/><polygon id="Triangle" fill="silver" points="536 53 611 128 461 128" transform="translate(536.000000, 90.500000) rotate(45.000000) translate(-536.000000, -90.500000)"/><path id="Triangle" stroke="silver" stroke-width="6" d="M531,490.242641 L613.757359,573 L448.242641,573 L531,490.242641 Z" transform="translate(531.000000, 531.000000) rotate(135.000000) translate(-531.000000, -531.000000)"/><path id="Triangle" stroke="silver" stroke-width="6" d="M96,490.242641 L178.757359,573 L13.2426407,573 L96,490.242641 Z" transform="translate(96.000000, 531.000000) rotate(225.000000) translate(-96.000000, -531.000000)"/><path id="Triangle" stroke="silver" stroke-width="6" d="M96,55.2426407 L178.757359,138 L13.2426407,138 L96,55.2426407 Z" transform="translate(96.000000, 96.000000) rotate(315.000000) translate(-96.000000, -96.000000)"/><path id="Triangle" stroke="silver" stroke-width="6" d="M531,55.2426407 L613.757359,138 L448.242641,138 L531,55.2426407 Z" transform="translate(531.000000, 96.000000) rotate(45.000000) translate(-531.000000, -96.000000)"/><rect id="Rectangle" width="488" height="488" x="69.541" y="69.541" stroke="#000" stroke-width="12"/></g><g id="investment" transform="translate(1567.459415, -63.540585)"><rect id="Rectangle" width="500" height="500" x="63.541" y="63.541" fill="#FFF"/><text id="INVESTMENT" fill="#555" font-family="PTSans-Bold, PT Sans" font-size="60" font-weight="bold"><tspan x="141.711" y="435.541">INVESTMENT</tspan></text><rect id="Rectangle" width="338" height="6" x="144.541" y="362.541" fill="#555" rx="3"/><text id="100" fill="#555" font-family="PTSans-Bold, PT Sans" font-size="200" font-weight="bold"><tspan x="143.941" y="337.541">100</tspan></text><polygon id="Triangle" fill="#555" points="536 499 611 574 461 574" transform="translate(536.000000, 536.500000) rotate(135.000000) translate(-536.000000, -536.500000)"/><polygon id="Triangle" fill="#555" points="91 499 166 574 16 574" transform="translate(91.000000, 536.500000) rotate(225.000000) translate(-91.000000, -536.500000)"/><polygon id="Triangle" fill="#555" points="91 54 166 129 16 129" transform="translate(91.000000, 91.500000) rotate(315.000000) translate(-91.000000, -91.500000)"/><polygon id="Triangle" fill="#555" points="536 53 611 128 461 128" transform="translate(536.000000, 90.500000) rotate(45.000000) translate(-536.000000, -90.500000)"/><path id="Triangle" stroke="#555" stroke-width="6" d="M531,490.242641 L613.757359,573 L448.242641,573 L531,490.242641 Z" transform="translate(531.000000, 531.000000) rotate(135.000000) translate(-531.000000, -531.000000)"/><path id="Triangle" stroke="#555" stroke-width="6" d="M96,490.242641 L178.757359,573 L13.2426407,573 L96,490.242641 Z" transform="translate(96.000000, 531.000000) rotate(225.000000) translate(-96.000000, -531.000000)"/><path id="Triangle" stroke="#555" stroke-width="6" d="M96,55.2426407 L178.757359,138 L13.2426407,138 L96,55.2426407 Z" transform="translate(96.000000, 96.000000) rotate(315.000000) translate(-96.000000, -96.000000)"/><path id="Triangle" stroke="#555" stroke-width="6" d="M531,55.2426407 L613.757359,138 L448.242641,138 L531,55.2426407 Z" transform="translate(531.000000, 96.000000) rotate(45.000000) translate(-531.000000, -96.000000)"/><rect id="Rectangle" width="488" height="488" x="69.541" y="69.541" stroke="#FFF" stroke-width="12"/></g><g id="500" transform="translate(-64.000000, -64.000000)"><rect id="Rectangle" width="600" height="300" x="64" y="64" fill="#000"/><polygon id="Triangle" fill="#FFF" points="637 300 712 375 562 375" transform="translate(637.000000, 337.500000) rotate(135.000000) translate(-637.000000, -337.500000)"/><polygon id="Triangle" fill="#FFF" points="91 300 166 375 16 375" transform="translate(91.000000, 337.500000) rotate(225.000000) translate(-91.000000, -337.500000)"/><polygon id="Triangle" fill="#FFF" points="91 54 166 129 16 129" transform="translate(91.000000, 91.500000) rotate(315.000000) translate(-91.000000, -91.500000)"/><polygon id="Triangle" fill="#FFF" points="637 53 712 128 562 128" transform="translate(637.000000, 90.500000) rotate(45.000000) translate(-637.000000, -90.500000)"/><path id="Triangle" stroke="#FFF" stroke-width="6" d="M632,291.242641 L714.757359,374 L549.242641,374 L632,291.242641 Z" transform="translate(632.000000, 332.000000) rotate(135.000000) translate(-632.000000, -332.000000)"/><path id="Triangle" stroke="#FFF" stroke-width="6" d="M96,291.242641 L178.757359,374 L13.2426407,374 L96,291.242641 Z" transform="translate(96.000000, 332.000000) rotate(225.000000) translate(-96.000000, -332.000000)"/><path id="Triangle" stroke="#FFF" stroke-width="6" d="M96,55.2426407 L178.757359,138 L13.2426407,138 L96,55.2426407 Z" transform="translate(96.000000, 96.000000) rotate(315.000000) translate(-96.000000, -96.000000)"/><path id="Triangle" stroke="#FFF" stroke-width="6" d="M632,55.2426407 L714.757359,138 L549.242641,138 L632,55.2426407 Z" transform="translate(632.000000, 96.000000) rotate(45.000000) translate(-632.000000, -96.000000)"/><rect id="Rectangle" width="588" height="288" x="70" y="70" stroke="#000" stroke-width="12"/><rect id="Rectangle" width="338" height="6" x="195" y="273" fill="#FFF" rx="3"/><text fill="#FFF" font-family="PTSans-Bold, PT Sans" font-size="200" font-weight="bold"><tspan x="193.4" y="248">500</tspan></text><text id="SOCIETY" fill="#FFF" font-family="TsukuARdGothic-Bold, Tsukushi A Round Gothic" font-size="50" font-weight="bold"><tspan x="252.625" y="337">SOCIETY</tspan></text></g><g id="200" transform="translate(-64.000000, 364.000000)"><rect id="Rectangle" width="600" height="300" x="64" y="64" fill="#000"/><polygon id="Triangle" fill="#555" points="637 300 712 375 562 375" transform="translate(637.000000, 337.500000) rotate(135.000000) translate(-637.000000, -337.500000)"/><polygon id="Triangle" fill="#555" points="91 300 166 375 16 375" transform="translate(91.000000, 337.500000) rotate(225.000000) translate(-91.000000, -337.500000)"/><polygon id="Triangle" fill="#555" points="91 54 166 129 16 129" transform="translate(91.000000, 91.500000) rotate(315.000000) translate(-91.000000, -91.500000)"/><polygon id="Triangle" fill="#555" points="637 53 712 128 562 128" transform="translate(637.000000, 90.500000) rotate(45.000000) translate(-637.000000, -90.500000)"/><path id="Triangle" stroke="#555" stroke-width="6" d="M632,291.242641 L714.757359,374 L549.242641,374 L632,291.242641 Z" transform="translate(632.000000, 332.000000) rotate(135.000000) translate(-632.000000, -332.000000)"/><path id="Triangle" stroke="#555" stroke-width="6" d="M96,291.242641 L178.757359,374 L13.2426407,374 L96,291.242641 Z" transform="translate(96.000000, 332.000000) rotate(225.000000) translate(-96.000000, -332.000000)"/><path id="Triangle" stroke="#555" stroke-width="6" d="M96,55.2426407 L178.757359,138 L13.2426407,138 L96,55.2426407 Z" transform="translate(96.000000, 96.000000) rotate(315.000000) translate(-96.000000, -96.000000)"/><path id="Triangle" stroke="#555" stroke-width="6" d="M632,55.2426407 L714.757359,138 L549.242641,138 L632,55.2426407 Z" transform="translate(632.000000, 96.000000) rotate(45.000000) translate(-632.000000, -96.000000)"/><rect id="Rectangle" width="588" height="288" x="70" y="70" stroke="#000" stroke-width="12"/><rect id="Rectangle" width="338" height="6" x="195" y="273" fill="#555" rx="3"/><text fill="#555" font-family="PTSans-Bold, PT Sans" font-size="200" font-weight="bold"><tspan x="193.4" y="248">200</tspan></text><text id="SOCIETY" fill="#555" font-family="TsukuARdGothic-Bold, Tsukushi A Round Gothic" font-size="50" font-weight="bold"><tspan x="252.625" y="338">SOCIETY</tspan></text></g><g id="100" transform="translate(-64.000000, 792.000000)"><rect id="Rectangle" width="600" height="300" x="64" y="64" fill="#FFF"/><polygon id="Triangle" fill="#000" points="637 300 712 375 562 375" transform="translate(637.000000, 337.500000) rotate(135.000000) translate(-637.000000, -337.500000)"/><polygon id="Triangle" fill="#000" points="91 300 166 375 16 375" transform="translate(91.000000, 337.500000) rotate(225.000000) translate(-91.000000, -337.500000)"/><polygon id="Triangle" fill="#000" points="91 54 166 129 16 129" transform="translate(91.000000, 91.500000) rotate(315.000000) translate(-91.000000, -91.500000)"/><polygon id="Triangle" fill="#000" points="637 53 712 128 562 128" transform="translate(637.000000, 90.500000) rotate(45.000000) translate(-637.000000, -90.500000)"/><path id="Triangle" stroke="#000" stroke-width="6" d="M632,291.242641 L714.757359,374 L549.242641,374 L632,291.242641 Z" transform="translate(632.000000, 332.000000) rotate(135.000000) translate(-632.000000, -332.000000)"/><path id="Triangle" stroke="#000" stroke-width="6" d="M96,291.242641 L178.757359,374 L13.2426407,374 L96,291.242641 Z" transform="translate(96.000000, 332.000000) rotate(225.000000) translate(-96.000000, -332.000000)"/><path id="Triangle" stroke="#000" stroke-width="6" d="M96,55.2426407 L178.757359,138 L13.2426407,138 L96,55.2426407 Z" transform="translate(96.000000, 96.000000) rotate(315.000000) translate(-96.000000, -96.000000)"/><path id="Triangle" stroke="#000" stroke-width="6" d="M632,55.2426407 L714.757359,138 L549.242641,138 L632,55.2426407 Z" transform="translate(632.000000, 96.000000) rotate(45.000000) translate(-632.000000, -96.000000)"/><rect id="Rectangle" width="588" height="288" x="70" y="70" stroke="#FFF" stroke-width="12"/><rect id="Rectangle" width="338" height="6" x="195" y="273" fill="#000" rx="3"/><text fill="#000" font-family="PTSans-Bold, PT Sans" font-size="200" font-weight="bold"><tspan x="193.4" y="248">100</tspan></text><text id="SOCIETY" fill="#000" font-family="TsukuARdGothic-Bold, Tsukushi A Round Gothic" font-size="50" font-weight="bold"><tspan x="252.625" y="338">SOCIETY</tspan></text></g><g id="50" transform="translate(-64.000000, 1220.000000)"><rect id="Rectangle" width="600" height="300" x="64" y="64" fill="#FFF"/><polygon id="Triangle" fill="silver" points="637 300 712 375 562 375" transform="translate(637.000000, 337.500000) rotate(135.000000) translate(-637.000000, -337.500000)"/><polygon id="Triangle" fill="silver" points="91 300 166 375 16 375" transform="translate(91.000000, 337.500000) rotate(225.000000) translate(-91.000000, -337.500000)"/><polygon id="Triangle" fill="silver" points="91 54 166 129 16 129" transform="translate(91.000000, 91.500000) rotate(315.000000) translate(-91.000000, -91.500000)"/><polygon id="Triangle" fill="silver" points="637 53 712 128 562 128" transform="translate(637.000000, 90.500000) rotate(45.000000) translate(-637.000000, -90.500000)"/><path id="Triangle" stroke="silver" stroke-width="6" d="M632,291.242641 L714.757359,374 L549.242641,374 L632,291.242641 Z" transform="translate(632.000000, 332.000000) rotate(135.000000) translate(-632.000000, -332.000000)"/><path id="Triangle" stroke="silver" stroke-width="6" d="M96,291.242641 L178.757359,374 L13.2426407,374 L96,291.242641 Z" transform="translate(96.000000, 332.000000) rotate(225.000000) translate(-96.000000, -332.000000)"/><path id="Triangle" stroke="silver" stroke-width="6" d="M96,55.2426407 L178.757359,138 L13.2426407,138 L96,55.2426407 Z" transform="translate(96.000000, 96.000000) rotate(315.000000) translate(-96.000000, -96.000000)"/><path id="Triangle" stroke="silver" stroke-width="6" d="M632,55.2426407 L714.757359,138 L549.242641,138 L632,55.2426407 Z" transform="translate(632.000000, 96.000000) rotate(45.000000) translate(-632.000000, -96.000000)"/><rect id="Rectangle" width="588" height="288" x="70" y="70" stroke="#FFF" stroke-width="12"/><rect id="Rectangle" width="338" height="6" x="195" y="273" fill="silver" rx="3"/><text fill="silver" font-family="PTSans-Bold, PT Sans" font-size="200" font-weight="bold"><tspan x="250.1" y="248">50</tspan></text><text id="SOCIETY" fill="silver" font-family="TsukuARdGothic-Bold, Tsukushi A Round Gothic" font-size="50" font-weight="bold"><tspan x="252.625" y="338">SOCIETY</tspan></text></g><g id="20" transform="translate(764.000000, -64.000000)"><rect id="Rectangle" width="600" height="300" x="64" y="64" fill="#555"/><polygon id="Triangle" fill="silver" points="637 300 712 375 562 375" transform="translate(637.000000, 337.500000) rotate(135.000000) translate(-637.000000, -337.500000)"/><polygon id="Triangle" fill="silver" points="91 300 166 375 16 375" transform="translate(91.000000, 337.500000) rotate(225.000000) translate(-91.000000, -337.500000)"/><polygon id="Triangle" fill="silver" points="91 54 166 129 16 129" transform="translate(91.000000, 91.500000) rotate(315.000000) translate(-91.000000, -91.500000)"/><polygon id="Triangle" fill="silver" points="637 53 712 128 562 128" transform="translate(637.000000, 90.500000) rotate(45.000000) translate(-637.000000, -90.500000)"/><path id="Triangle" stroke="silver" stroke-width="6" d="M632,291.242641 L714.757359,374 L549.242641,374 L632,291.242641 Z" transform="translate(632.000000, 332.000000) rotate(135.000000) translate(-632.000000, -332.000000)"/><path id="Triangle" stroke="silver" stroke-width="6" d="M96,291.242641 L178.757359,374 L13.2426407,374 L96,291.242641 Z" transform="translate(96.000000, 332.000000) rotate(225.000000) translate(-96.000000, -332.000000)"/><path id="Triangle" stroke="silver" stroke-width="6" d="M96,55.2426407 L178.757359,138 L13.2426407,138 L96,55.2426407 Z" transform="translate(96.000000, 96.000000) rotate(315.000000) translate(-96.000000, -96.000000)"/><path id="Triangle" stroke="silver" stroke-width="6" d="M632,55.2426407 L714.757359,138 L549.242641,138 L632,55.2426407 Z" transform="translate(632.000000, 96.000000) rotate(45.000000) translate(-632.000000, -96.000000)"/><rect id="Rectangle" width="588" height="288" x="70" y="70" stroke="#555" stroke-width="12"/><rect id="Rectangle" width="338" height="6" x="195" y="273" fill="silver" rx="3"/><text fill="silver" font-family="PTSans-Bold, PT Sans" font-size="200" font-weight="bold"><tspan x="251.1" y="248">20</tspan></text><text id="SOCIETY" fill="silver" font-family="TsukuARdGothic-Bold, Tsukushi A Round Gothic" font-size="50" font-weight="bold"><tspan x="253.625" y="338">SOCIETY</tspan></text></g><g id="10" transform="translate(764.000000, 364.000000)"><rect id="Rectangle" width="600" height="300" x="64" y="64" fill="#555"/><polygon id="Triangle" fill="#000" points="637 300 712 375 562 375" transform="translate(637.000000, 337.500000) rotate(135.000000) translate(-637.000000, -337.500000)"/><polygon id="Triangle" fill="#000" points="91 300 166 375 16 375" transform="translate(91.000000, 337.500000) rotate(225.000000) translate(-91.000000, -337.500000)"/><polygon id="Triangle" fill="#000" points="91 54 166 129 16 129" transform="translate(91.000000, 91.500000) rotate(315.000000) translate(-91.000000, -91.500000)"/><polygon id="Triangle" fill="#000" points="637 53 712 128 562 128" transform="translate(637.000000, 90.500000) rotate(45.000000) translate(-637.000000, -90.500000)"/><path id="Triangle" stroke="#000" stroke-width="6" d="M632,291.242641 L714.757359,374 L549.242641,374 L632,291.242641 Z" transform="translate(632.000000, 332.000000) rotate(135.000000) translate(-632.000000, -332.000000)"/><path id="Triangle" stroke="#000" stroke-width="6" d="M96,291.242641 L178.757359,374 L13.2426407,374 L96,291.242641 Z" transform="translate(96.000000, 332.000000) rotate(225.000000) translate(-96.000000, -332.000000)"/><path id="Triangle" stroke="#000" stroke-width="6" d="M96,55.2426407 L178.757359,138 L13.2426407,138 L96,55.2426407 Z" transform="translate(96.000000, 96.000000) rotate(315.000000) translate(-96.000000, -96.000000)"/><path id="Triangle" stroke="#000" stroke-width="6" d="M632,55.2426407 L714.757359,138 L549.242641,138 L632,55.2426407 Z" transform="translate(632.000000, 96.000000) rotate(45.000000) translate(-632.000000, -96.000000)"/><rect id="Rectangle" width="588" height="288" x="70" y="70" stroke="#555" stroke-width="12"/><rect id="Rectangle" width="338" height="6" x="195" y="273" fill="#000" rx="3"/><text fill="#000" font-family="PTSans-Bold, PT Sans" font-size="200" font-weight="bold"><tspan x="251.1" y="248">10</tspan></text><text id="SOCIETY" fill="#000" font-family="TsukuARdGothic-Bold, Tsukushi A Round Gothic" font-size="50" font-weight="bold"><tspan x="253.625" y="338">SOCIETY</tspan></text></g><g id="5" transform="translate(764.000000, 792.000000)"><rect id="Rectangle" width="600" height="300" x="64" y="64" fill="silver"/><polygon id="Triangle" fill="#555" points="637 300 712 375 562 375" transform="translate(637.000000, 337.500000) rotate(135.000000) translate(-637.000000, -337.500000)"/><polygon id="Triangle" fill="#555" points="91 300 166 375 16 375" transform="translate(91.000000, 337.500000) rotate(225.000000) translate(-91.000000, -337.500000)"/><polygon id="Triangle" fill="#555" points="91 54 166 129 16 129" transform="translate(91.000000, 91.500000) rotate(315.000000) translate(-91.000000, -91.500000)"/><polygon id="Triangle" fill="#555" points="637 53 712 128 562 128" transform="translate(637.000000, 90.500000) rotate(45.000000) translate(-637.000000, -90.500000)"/><path id="Triangle" stroke="#555" stroke-width="6" d="M632,291.242641 L714.757359,374 L549.242641,374 L632,291.242641 Z" transform="translate(632.000000, 332.000000) rotate(135.000000) translate(-632.000000, -332.000000)"/><path id="Triangle" stroke="#555" stroke-width="6" d="M96,291.242641 L178.757359,374 L13.2426407,374 L96,291.242641 Z" transform="translate(96.000000, 332.000000) rotate(225.000000) translate(-96.000000, -332.000000)"/><path id="Triangle" stroke="#555" stroke-width="6" d="M96,55.2426407 L178.757359,138 L13.2426407,138 L96,55.2426407 Z" transform="translate(96.000000, 96.000000) rotate(315.000000) translate(-96.000000, -96.000000)"/><path id="Triangle" stroke="#555" stroke-width="6" d="M632,55.2426407 L714.757359,138 L549.242641,138 L632,55.2426407 Z" transform="translate(632.000000, 96.000000) rotate(45.000000) translate(-632.000000, -96.000000)"/><rect id="Rectangle" width="588" height="288" x="70" y="70" stroke="silver" stroke-width="12"/><rect id="Rectangle" width="338" height="6" x="195" y="273" fill="#555" rx="3"/><text fill="#555" font-family="PTSans-Bold, PT Sans" font-size="200" font-weight="bold"><tspan x="307.3" y="248">5</tspan></text><text id="SOCIETY" fill="#555" font-family="TsukuARdGothic-Bold, Tsukushi A Round Gothic" font-size="50" font-weight="bold"><tspan x="253.625" y="338">SOCIETY</tspan></text></g><g id="1" transform="translate(764.000000, 1220.000000)"><rect id="Rectangle" width="600" height="300" x="64" y="64" fill="silver"/><polygon id="Triangle" fill="#FFF" points="637 300 712 375 562 375" transform="translate(637.000000, 337.500000) rotate(135.000000) translate(-637.000000, -337.500000)"/><polygon id="Triangle" fill="#FFF" points="91 300 166 375 16 375" transform="translate(91.000000, 337.500000) rotate(225.000000) translate(-91.000000, -337.500000)"/><polygon id="Triangle" fill="#FFF" points="91 54 166 129 16 129" transform="translate(91.000000, 91.500000) rotate(315.000000) translate(-91.000000, -91.500000)"/><polygon id="Triangle" fill="#FFF" points="637 53 712 128 562 128" transform="translate(637.000000, 90.500000) rotate(45.000000) translate(-637.000000, -90.500000)"/><path id="Triangle" stroke="#FFF" stroke-width="6" d="M632,291.242641 L714.757359,374 L549.242641,374 L632,291.242641 Z" transform="translate(632.000000, 332.000000) rotate(135.000000) translate(-632.000000, -332.000000)"/><path id="Triangle" stroke="#FFF" stroke-width="6" d="M96,291.242641 L178.757359,374 L13.2426407,374 L96,291.242641 Z" transform="translate(96.000000, 332.000000) rotate(225.000000) translate(-96.000000, -332.000000)"/><path id="Triangle" stroke="#FFF" stroke-width="6" d="M96,55.2426407 L178.757359,138 L13.2426407,138 L96,55.2426407 Z" transform="translate(96.000000, 96.000000) rotate(315.000000) translate(-96.000000, -96.000000)"/><path id="Triangle" stroke="#FFF" stroke-width="6" d="M632,55.2426407 L714.757359,138 L549.242641,138 L632,55.2426407 Z" transform="translate(632.000000, 96.000000) rotate(45.000000) translate(-632.000000, -96.000000)"/><rect id="Rectangle" width="588" height="288" x="70" y="70" stroke="silver" stroke-width="12"/><rect id="Rectangle" width="338" height="6" x="195" y="273" fill="#FFF" rx="3"/><text fill="#FFF" font-family="PTSans-Bold, PT Sans" font-size="200" font-weight="bold"><tspan x="307.3" y="248">1</tspan></text><text id="SOCIETY" fill="#FFF" font-family="TsukuARdGothic-Bold, Tsukushi A Round Gothic" font-size="50" font-weight="bold"><tspan x="253.625" y="338">SOCIETY</tspan></text></g></g></svg>